<svg xmlns="http://www.w3.org/2000/svg" version="1.1" xmlns:xlink="http://www.w3.org/1999/xlink" xmlns:svgjs="http://svgjs.dev/svgjs" width="100%" height="100%" viewBox="0 0 1000 600"><rect width="1000" height="600" x="0" y="0" fill="#f4efea"/><g><rect width="333.3333333333333" height="333.3333333333333" y="221.79132401600475" fill="black" transform="matrix(0.6263494956785555,0,0,0.6263494956785555,0,56.68953403133938)" x="199.56909179687497"/><path d="M296.5663739791215 463.457976059868L296.5663739791215 463.457976059868Q277.67346360225883 463.457976059868 264.3541046981469 458.54181783774936Q251.03474579403488 453.6256596156308 244.06066087428525 441.24951711459966Q237.05799363929074 428.9019569288135 237.05799363929074 406.6077510378106L237.05799363929074 406.6077510378106L237.05799363929074 333.0368715975011Q237.05799363929074 330.1214754425238 238.0583746728614 328.60661273454537L238.0583746728614 328.60661273454537Q242.6029627967966 321.9755155977343 250.72034032634124 314.6584428950461L250.72034032634124 314.6584428950461Q252.23520303431962 313.45798565476133 253.34991332886977 313.45798565476133L253.34991332886977 313.45798565476133Q254.55037056915455 313.45798565476133 255.8651570704188 314.6584428950461L255.8651570704188 314.6584428950461Q260.2668336181297 318.45989082261457 263.2965590340865 321.9469332824894Q266.2977021347983 325.40539342711935 268.52712272389863 328.60661273454537L268.52712272389863 328.60661273454537Q269.5275037574693 330.2358047035033 269.5275037574693 333.0368715975011L269.5275037574693 333.0368715975011L269.5275037574693 401.5772635547125Q269.5275037574693 415.92558580764 272.58581148867097 423.41415240179737Q275.64411921987266 430.9027189959548 281.6749877365414 433.6180389442179Q287.7058562532101 436.3333588924811 296.5663739791215 436.3333588924811L296.5663739791215 436.3333588924811Q305.5983855965022 436.3333588924811 311.6292541131709 433.6180389442179Q317.66012262983963 430.9027189959548 320.6612657305516 423.41415240179737Q323.6909911465084 415.92558580764 323.6909911465084 401.5772635547125L323.6909911465084 401.5772635547125L323.6909911465084 333.0368715975011Q323.6909911465084 330.1214754425238 324.69137218007904 328.60661273454537L324.69137218007904 328.60661273454537Q329.2073779887693 321.9755155977343 337.35333783355884 314.6584428950461L337.35333783355884 314.6584428950461Q338.86820054153725 313.45798565476133 339.9543285208425 313.45798565476133L339.9543285208425 313.45798565476133Q341.1833680763722 313.45798565476133 342.4695722623916 314.6584428950461L342.4695722623916 314.6584428950461Q346.8998311253473 318.45989082261457 349.90097422605913 321.9469332824894Q352.93069964201595 325.40539342711935 355.1315379158714 328.60661273454537L355.1315379158714 328.60661273454537Q356.131918949442 330.2358047035033 356.131918949442 333.0368715975011L356.131918949442 333.0368715975011L356.131918949442 406.6077510378106Q356.131918949442 428.9019569288135 348.5004407790602 441.24951711459966Q340.86896260867854 453.6256596156308 327.46385675883187 458.54181783774936Q314.0301685937404 463.457976059868 296.5663739791215 463.457976059868ZM449.3960135934708 343.383669716146L449.3960135934708 455.74075094375155Q449.3960135934708 458.7418940444635 448.13839172269627 459.9137689695034Q446.88076985192174 461.05706157929836 443.8510444359649 461.05706157929836L443.8510444359649 461.05706157929836L422.47147263279805 461.05706157929836Q419.44174721684124 461.05706157929836 418.1841253460667 459.9137689695034Q416.9265034752922 458.7418940444635 416.9265034752922 455.74075094375155L416.9265034752922 455.74075094375155L416.9265034752922 343.383669716146L387.0008194139076 343.383669716146Q384.5713226180932 343.383669716146 383.3708653778084 342.5833648892895L383.3708653778084 342.5833648892895Q380.7698746905247 340.78267902886233 377.9973901117718 338.2674352873133Q375.22490553301884 335.7521915457642 372.0236862255929 332.2365667706446L372.0236862255929 332.2365667706446Q371.02330519202224 330.9217802693803 371.02330519202224 330.1214754425238L371.02330519202224 330.1214754425238Q371.02330519202224 329.20684135468775 372.0236862255929 328.12071337538254L372.0236862255929 328.12071337538254Q375.22490553301884 324.60508860026283 377.9973901117718 322.0898448587138Q380.7698746905247 319.5746011171647 383.3708653778084 317.77391525673755L383.3708653778084 317.77391525673755Q384.7713988248073 316.97361042988103 387.0008194139076 316.97361042988103L387.0008194139076 316.97361042988103L479.4360269158349 316.97361042988103Q481.8369413964044 316.97361042988103 483.0659809519341 317.77391525673755L483.0659809519341 317.77391525673755Q485.66697163921776 319.5746011171647 488.4680385332156 322.0898448587138Q491.29768774245827 324.60508860026283 494.4131601041496 328.12071337538254L494.4131601041496 328.12071337538254Q495.41354113772036 329.4354998766468 495.41354113772036 330.2358047035033L495.41354113772036 330.2358047035033Q495.41354113772036 331.1218564760944 494.4131601041496 332.2365667706446L494.4131601041496 332.2365667706446Q491.29768774245827 335.7521915457642 488.4680385332156 338.2674352873133Q485.66697163921776 340.78267902886233 483.0659809519341 342.5833648892895L483.0659809519341 342.5833648892895Q481.6368651896903 343.383669716146 479.4360269158349 343.383669716146L479.4360269158349 343.383669716146L449.3960135934708 343.383669716146Z " fill="red" transform="matrix(0.6263494956785555,0,0,0.6263494956785555,0,56.68953403133938)"/><path d="M671.8546312115201 463.3511253608079L671.8546312115201 463.3511253608079Q654.1965741198762 463.3511253608079 641.7477774410471 458.75629053514564Q629.2989807622181 454.1614557094834 622.7807267072088 442.5942261774384Q616.2357584962364 431.0537108013565 616.2357584962364 410.2166691500975L616.2357584962364 410.2166691500975L616.2357584962364 341.45443170094285Q616.2357584962364 338.7295877927013 617.1707539549468 337.31373752665417L617.1707539549468 337.31373752665417Q621.418304753088 331.11605334320285 629.0051250466233 324.27722941663575L629.0051250466233 324.27722941663575Q630.4209753126705 323.1552348661834 631.4628273952334 323.1552348661834L631.4628273952334 323.1552348661834Q632.5848219456858 323.1552348661834 633.8136731199908 324.27722941663575L633.8136731199908 324.27722941663575Q637.9276531383163 327.830212159735 640.7593536704104 331.08933918723966Q643.5643400465415 334.3217520587811 645.6480442116674 337.31373752665417L645.6480442116674 337.31373752665417Q646.5830396703777 338.8364444165539 646.5830396703777 341.45443170094285L646.5830396703777 341.45443170094285L646.5830396703777 405.5149777005826Q646.5830396703777 418.92548399408525 649.4414543584351 425.92459285643116Q652.2998690464923 432.9237017187772 657.9365559547176 435.4615465352767Q663.5732428629427 437.9993913517761 671.8546312115201 437.9993913517761L671.8546312115201 437.9993913517761Q680.2963044958763 437.9993913517761 685.9329914041015 435.4615465352767Q691.5696783123266 432.9237017187772 694.3746646884576 425.92459285643116Q697.2063652205518 418.92548399408525 697.2063652205518 405.5149777005826L697.2063652205518 405.5149777005826L697.2063652205518 341.45443170094285Q697.2063652205518 338.7295877927013 698.1413606792621 337.31373752665417L698.1413606792621 337.31373752665417Q702.3621973214402 331.11605334320285 709.9757317709388 324.27722941663575L709.9757317709388 324.27722941663575Q711.3915820369858 323.1552348661834 712.4067199635856 323.1552348661834L712.4067199635856 323.1552348661834Q713.5554286700011 323.1552348661834 714.757565688343 324.27722941663575L714.757565688343 324.27722941663575Q718.8982598626317 327.830212159735 721.7032462387626 331.08933918723966Q724.5349467708569 334.3217520587811 726.5919367800196 337.31373752665417L726.5919367800196 337.31373752665417Q727.52693223873 338.8364444165539 727.52693223873 341.45443170094285L727.52693223873 341.45443170094285L727.52693223873 410.2166691500975Q727.52693223873 431.0537108013565 720.3942525965682 442.5942261774384Q713.2615729544065 454.1614557094834 700.7326338076879 458.75629053514564Q688.1769805050062 463.3511253608079 671.8546312115201 463.3511253608079ZM847.0994943298007 401.29414105840453L847.0994943298007 401.29414105840453L847.0994943298007 456.1383032507567Q847.0994943298007 458.94328962688775 845.9240714674221 460.038570021377Q844.7486486050433 461.1071362599031 841.9169480729491 461.1071362599031L841.9169480729491 461.1071362599031L822.5758991556266 461.1071362599031Q819.7709127794957 461.1071362599031 818.595489917117 460.038570021377Q817.4200670547383 458.94328962688775 817.4200670547383 456.1383032507567L817.4200670547383 456.1383032507567L817.4200670547383 406.1561174436983Q817.4200670547383 395.9245957098109 813.0923737887075 391.22290426029605Q808.7646805226768 386.54792696674434 801.3648593208835 386.54792696674434L801.3648593208835 386.54792696674434Q793.9383239631271 386.54792696674434 789.9312005686543 389.7269115263595Q785.9507913301445 392.9326102419378 783.7869446971291 397.7945866272316L783.7869446971291 397.7945866272316L783.7869446971291 456.1383032507567Q783.7869446971291 458.94328962688775 782.6115218347505 460.038570021377Q781.4360989723717 461.1071362599031 778.6311125962408 461.1071362599031L778.6311125962408 461.1071362599031L759.2900636789183 461.1071362599031Q756.4583631468241 461.1071362599031 755.2829402844454 460.038570021377Q754.1075174220667 458.94328962688775 754.1075174220667 456.1383032507567L754.1075174220667 456.1383032507567L754.1075174220667 377.4383997833093Q754.1075174220667 375.1676965264414 755.042512880777 373.93884535213635L755.042512880777 373.93884535213635Q757.0193604220503 371.3208580677474 759.7976326422182 368.59601415950584Q762.5759048623861 365.8711702512643 766.6097424128221 362.7723281595386L766.6097424128221 362.7723281595386Q767.8385935871271 361.83733270082826 768.9605881375795 361.83733270082826L768.9605881375795 361.83733270082826Q769.9757260641793 361.83733270082826 771.3114338623369 362.7723281595386L771.3114338623369 362.7723281595386Q775.2384147889204 365.8711702512643 778.0701153210146 368.70287078335843Q780.8751016971456 371.50785715948945 783.0389483301609 374.5265567833257L783.0389483301609 374.5265567833257L783.5198031374977 374.5265567833257Q785.0959383393237 372.4428526181998 788.301637054902 369.6912945539951Q791.4806216145171 366.91302233382726 797.2775934585212 364.74917570081186Q803.0478511465622 362.5853290677965 812.0505217061445 362.5853290677965L812.0505217061445 362.5853290677965Q820.8929073299481 362.5853290677965 828.8804399629306 366.16502596685893Q836.8679725959133 369.71800870995827 841.9703763848754 378.18639615027763Q847.0994943298007 386.6280694346338 847.0994943298007 401.29414105840453ZM868.1235350728017 333.3867566000708L868.1235350728017 333.3867566000708Q868.1235350728017 332.15790542576576 868.87153143977 331.22290996705544Q869.6195278067383 330.28791450834507 870.8483789810433 328.7652076184454L870.8483789810433 328.7652076184454Q873.4930804213953 325.77322215057234 876.9659206966053 322.43395265517825Q880.438760971815 319.0946831597842 883.9917437149144 315.9958410680585L883.9917437149144 315.9958410680585Q886.2624469717824 314.2327067744904 887.3844415222347 314.2327067744904L887.3844415222347 314.2327067744904Q888.5064360726872 314.2327067744904 890.8572817974446 315.9958410680585L890.8572817974446 315.9958410680585Q898.470816246943 322.56752343499403 903.8136474395735 328.7652076184454L903.8136474395735 328.7652076184454Q905.0424986138786 330.1810578844925 905.8439232927732 331.1694816551291Q906.6453479716678 332.15790542576576 906.6453479716678 333.3867566000708L906.6453479716678 333.3867566000708Q906.6453479716678 334.58889361841267 905.8439232927732 335.5506032330862Q905.0424986138786 336.4855986917965 903.733504971684 338.0884480495857L903.733504971684 338.0884480495857Q901.1956601551846 341.0002910495693 897.8029623478642 344.3128463890002Q894.436978696507 347.6521158843943 890.8572817974446 350.6708155082305L890.8572817974446 350.6708155082305Q889.5482881552501 351.7928100586829 888.8002917882819 352.11337993024074Q888.0522954213135 352.4339498017985 887.3844415222347 352.4339498017985L887.3844415222347 352.4339498017985Q886.716587623156 352.4339498017985 886.0220195681139 352.11337993024074Q885.327451513072 351.7928100586829 883.8047446231723 350.6708155082305L883.8047446231723 350.6708155082305Q880.064762788331 347.6521158843943 876.7789216048632 344.3128463890002Q873.4930804213953 341.0002910495693 870.8483789810433 337.8747348018804L870.8483789810433 337.8747348018804Q869.6195278067383 336.37874206794385 868.87153143977 335.4971749211598Q868.1235350728017 334.58889361841267 868.1235350728017 333.3867566000708ZM902.1306556138949 369.9050078017003L902.1306556138949 456.1383032507567Q902.1306556138949 458.94328962688775 900.9552327515163 460.038570021377Q899.7798098891375 461.1071362599031 896.9748235130065 461.1071362599031L896.9748235130065 461.1071362599031L877.6070604397208 461.1071362599031Q874.8020740635899 461.1071362599031 873.6266512012112 460.038570021377Q872.4512283388325 458.94328962688775 872.4512283388325 456.1383032507567L872.4512283388325 456.1383032507567L872.4512283388325 369.9050078017003Q872.4512283388325 367.1000214255693 873.6266512012112 366.00474103108Q874.8020740635899 364.9361747925539 877.6070604397208 364.9361747925539L877.6070604397208 364.9361747925539L896.9748235130065 364.9361747925539Q899.7798098891375 364.9361747925539 900.9552327515163 366.00474103108Q902.1306556138949 367.1000214255693 902.1306556138949 369.9050078017003L902.1306556138949 369.9050078017003ZM965.710346806198 463.45798198466053L965.710346806198 463.45798198466053Q934.347927705457 463.45798198466053 934.347927705457 430.86671170961444L934.347927705457 430.86671170961444L934.347927705457 386.81506852637585L923.7156936321222 386.81506852637585Q920.9107072559913 386.81506852637585 919.842141017465 385.63964566399716Q918.7468606229758 384.46422280161846 918.7468606229758 381.65923642548745L918.7468606229758 381.65923642548745L918.7468606229758 370.0920068934424Q918.7468606229758 367.28702051731136 919.842141017465 366.11159765493267Q920.9107072559913 364.9361747925539 923.7156936321222 364.9361747925539L923.7156936321222 364.9361747925539L934.347927705457 364.9361747925539L934.347927705457 349.8159625174096Q934.347927705457 347.5719734165048 935.2829231641673 346.34312224219974L935.2829231641673 346.34312224219974Q939.2366182467139 341.18729014131134 946.8234385402492 335.176605049602L946.8234385402492 335.176605049602Q948.1591463384067 334.2148954349285 949.1742842650066 334.2148954349285L949.1742842650066 334.2148954349285Q950.296278815459 334.2148954349285 951.4449875218746 335.176605049602L951.4449875218746 335.176605049602Q955.4788250723105 338.2754471413277 958.2303831365153 341.0002910495693Q961.0086553566831 343.69842080184765 962.9855028979564 346.34312224219974L962.9855028979564 346.34312224219974Q963.9204983566668 347.5719734165048 963.9204983566668 349.8159625174096L963.9204983566668 349.8159625174096L963.9204983566668 364.9361747925539L980.5367033657477 364.9361747925539Q983.3684038978419 364.9361747925539 984.4369701363679 366.11159765493267Q985.5322505308571 367.28702051731136 985.5322505308571 370.0920068934424L985.5322505308571 370.0920068934424L985.5322505308571 381.65923642548745Q985.5322505308571 384.46422280161846 984.4369701363679 385.63964566399716Q983.3684038978419 386.81506852637585 980.5367033657477 386.81506852637585L980.5367033657477 386.81506852637585L963.9204983566668 386.81506852637585L963.9204983566668 425.710879608726Q963.9204983566668 440.7242352600177 974.819873989633 440.7242352600177L974.819873989633 440.7242352600177Q976.5028658153116 440.7242352600177 977.9187160813586 440.40366538845984Q979.3345663474058 440.0563813609389 980.3497042740056 439.68238317745477L980.3497042740056 439.68238317745477Q982.3265518152789 438.9343868104865 983.1279764941734 439.1213859022285Q983.929401173068 439.3083849939706 984.5972550721468 441.20509006735443L984.5972550721468 441.20509006735443L990.0469428886299 455.7643050672726Q990.8750817234876 458.0884366360669 988.8982341822144 459.1302887186298L988.8982341822144 459.1302887186298Q987.5090980721305 459.7981426177086 982.0861244116105 461.614705223203Q976.6898649070537 463.45798198466053 965.710346806198 463.45798198466053ZM1035.407579714063 375.8355504255202L1035.407579714063 382.7812309759398L1035.7815778975473 382.7812309759398Q1042.8074009158563 363.25318296687533 1061.133311906579 363.25318296687533L1061.133311906579 363.25318296687533Q1063.4841576313365 363.25318296687533 1064.980150365273 363.4936103705437Q1066.4761430992094 363.70732361824895 1067.0371403744357 363.894322709991L1067.0371403744357 363.894322709991Q1068.4529906404828 364.37517751732776 1068.4529906404828 366.05816934300634L1068.4529906404828 366.05816934300634L1068.4529906404828 388.68505944379655Q1068.4529906404828 391.59690244378015 1065.0602928331623 390.28790880158573L1065.0602928331623 390.28790880158573Q1063.93829828271 389.8337681502121 1061.827879961621 389.29948503094903Q1059.7174616405318 388.79191606764914 1055.9507656497271 388.79191606764914L1055.9507656497271 388.79191606764914Q1046.2802411910661 388.79191606764914 1040.830553374583 395.87116739788456Q1035.407579714063 402.9771328840831 1035.407579714063 415.18550215924387L1035.407579714063 415.18550215924387L1035.407579714063 456.1383032507567Q1035.407579714063 458.94328962688775 1034.232156851684 460.038570021377Q1033.0567339893055 461.1071362599031 1030.2250334572113 461.1071362599031L1030.2250334572113 461.1071362599031L1010.883984539889 461.1071362599031Q1008.0789981637579 461.1071362599031 1006.9035753013792 460.038570021377Q1005.7281524390005 458.94328962688775 1005.7281524390005 456.1383032507567L1005.7281524390005 456.1383032507567L1005.7281524390005 377.4383997833093Q1005.7281524390005 375.1676965264414 1006.6631478977108 373.93884535213635L1006.6631478977108 373.93884535213635Q1008.6399954389841 371.3208580677474 1011.3915535031889 368.59601415950584Q1014.1698257233567 365.8711702512643 1018.2036632737927 362.7723281595386L1018.2036632737927 362.7723281595386Q1018.951659640761 362.21133088431236 1019.6996560077292 362.0243317925703Q1020.4743665306607 361.83733270082826 1021.0353638058868 361.83733270082826L1021.0353638058868 361.83733270082826Q1022.3443574480814 361.83733270082826 1023.6533510902758 362.7723281595386L1023.6533510902758 362.7723281595386Q1031.4538846315163 368.8898698751005 1034.552726723242 373.1908489851681L1034.552726723242 373.1908489851681Q1035.407579714063 374.33955769158365 1035.407579714063 375.8355504255202L1035.407579714063 375.8355504255202ZM1107.3488017228328 463.45798198466053L1107.3488017228328 463.45798198466053Q1093.537583089883 463.45798198466053 1085.4164796770847 455.71087675534625Q1077.295376264286 447.9637715260321 1077.295376264286 434.33955198482425L1077.295376264286 434.33955198482425Q1077.295376264286 427.28701481055197 1079.8599352367487 421.2496155628795Q1082.4512083651748 415.18550215924387 1088.8893199522945 410.53723902165535Q1095.3274315394142 405.8889758840668 1106.9213752274222 403.0572753519726Q1118.5153189154307 400.2522889758416 1136.5473741905585 399.77143416850487L1136.5473741905585 399.77143416850487Q1136.5473741905585 391.22290426029605 1132.2731092364543 387.48292242545466Q1127.9988442823496 383.7162264346502 1119.4503143741408 383.7162264346502L1119.4503143741408 383.7162264346502Q1111.7566374567527 383.7162264346502 1106.8679469154958 386.3609278750023Q1101.979256374239 388.9789151593912 1100.750405199934 389.91391061810157L1100.750405199934 389.91391061810157Q1099.4414115577397 391.03590516855394 1097.571420640319 390.7687636089224L1097.571420640319 390.7687636089224Q1095.0335758238193 390.3947654254383 1092.1751611357622 389.45976996672795Q1089.3167464477046 388.4980603520545 1086.004191108274 387.2959233337126L1086.004191108274 387.2959233337126Q1085.5500504569004 387.10892424197056 1084.989053181674 386.6814977465601Q1084.4280559064478 386.2540712511497 1084.3211992825954 385.3992182603288L1084.3211992825954 385.3992182603288Q1084.3211992825954 384.94507760895516 1084.4280559064478 384.2237953979501Q1084.5081983743376 383.5292273429081 1084.8821965578213 381.65923642548745L1084.8821965578213 381.65923642548745Q1085.2561947413055 379.7625313521036 1086.004191108274 377.0109732878989Q1086.7789016312054 374.232701067731 1087.420041374321 372.73670833379447L1087.420041374321 372.73670833379447Q1088.2748943651418 371.13385897600534 1090.2517419064152 369.71800870995827L1090.2517419064152 369.71800870995827Q1091.827877108241 368.40901506776373 1099.9222663650762 365.4971720677801Q1107.9899414659485 362.5853290677965 1123.2971528328349 362.5853290677965L1123.2971528328349 362.5853290677965Q1165.4788050986526 362.5853290677965 1165.4788050986526 403.61827262719885L1165.4788050986526 403.61827262719885L1165.4788050986526 456.77944299387235Q1165.4788050986526 458.5692914434036 1164.4903813280162 459.85157092963493Q1163.5019575573797 461.1071362599031 1161.151111832622 461.1071362599031L1161.151111832622 461.1071362599031L1147.0727516400407 461.1071362599031Q1145.5500447501408 461.1071362599031 1144.3746218877623 460.67970976449266Q1143.1991990253837 460.25228326908217 1142.1840610987838 459.05014625074034L1142.1840610987838 459.05014625074034L1136.3603750988163 451.5167542691313L1135.6925211997377 451.5167542691313Q1131.39154208967 457.8212950764353 1124.0985775117297 460.62628145256633Q1116.8323270897517 463.45798198466053 1107.3488017228328 463.45798198466053ZM1117.6604659246095 441.659230718728L1117.6604659246095 441.659230718728Q1126.315852456671 441.659230718728 1130.7236881905915 437.25139498480786Q1135.1315239245114 432.8435592508877 1136.3603750988163 428.1418678013728L1136.3603750988163 428.1418678013728L1136.3603750988163 417.72334697574337Q1123.2971528328349 417.72334697574337 1116.7788987778258 419.7269086729798Q1110.2606447228163 421.7571845261794 1108.0967980898008 424.98959739772084Q1105.9329514567858 428.2487244252255 1105.9329514567858 431.9887062600668L1105.9329514567858 431.9887062600668Q1105.9329514567858 437.43839407654997 1109.2989351081428 439.548812397639Q1112.6916329154633 441.659230718728 1117.6604659246095 441.659230718728ZM1224.8376596487778 463.45798198466053L1224.8376596487778 463.45798198466053Q1212.3354346580222 463.45798198466053 1203.5464773461454 457.31372611313543Q1194.784234190231 451.1427560856472 1190.216113520532 440.29680876460725Q1185.6747070067959 429.4508614435673 1185.6747070067959 415.2656446271333L1185.6747070067959 415.2656446271333Q1185.6747070067959 396.5924496088897 1192.2731035296947 384.9985059208815Q1198.8982142085565 373.37784807691014 1210.9730127039015 367.92816026042703Q1223.0478111992466 362.50518659990706 1239.477017116585 362.50518659990706L1239.477017116585 362.50518659990706Q1245.1137040248104 362.50518659990706 1248.8269717036887 363.0661838751333Q1252.540239382567 363.62718115035943 1254.1163745843928 364.08132180173305L1254.1163745843928 364.08132180173305L1254.1163745843928 329.0590633340401Q1254.1163745843928 326.81507423313525 1255.0780841990663 325.5862230588303L1255.0780841990663 325.5862230588303Q1259.0050651256497 320.4303909579418 1266.6185995751484 314.4197058662325L1266.6185995751484 314.4197058662325Q1267.9275932173427 313.457996251559 1268.9694452999056 313.457996251559L1268.9694452999056 313.457996251559Q1270.1982964742106 313.457996251559 1271.3202910246632 314.4197058662325L1271.3202910246632 314.4197058662325Q1275.3541285750994 317.51854795795816 1278.1324007952671 320.2433918661997Q1280.8839588594715 322.9682357744413 1282.8608064007449 325.5862230588303L1282.8608064007449 325.5862230588303Q1283.7958018594554 326.81507423313525 1283.7958018594554 329.0590633340401L1283.7958018594554 329.0590633340401L1283.7958018594554 456.77944299387235Q1283.7958018594554 458.5692914434036 1282.5936648411134 459.85157092963493Q1281.3648136668085 461.1071362599031 1279.4948227493878 461.1071362599031L1279.4948227493878 461.1071362599031L1265.4966050246958 461.1071362599031Q1264.0006122907594 461.1071362599031 1262.8251894283808 460.67970976449266Q1261.6497665660017 460.25228326908217 1260.607914483439 459.05014625074034L1260.607914483439 459.05014625074034L1254.784228483472 451.5167542691313L1254.1163745843928 451.5167542691313Q1252.9142375660508 453.4134593425152 1249.7619671623988 456.2718740305725Q1246.6096967587468 459.1302887186298 1240.6524399789641 461.29413535164514Q1234.695183199181 463.45798198466053 1224.8376596487778 463.45798198466053ZM1233.9471868322125 439.41524161782326L1233.9471868322125 439.41524161782326Q1242.388860116569 439.41524161782326 1247.2241223458996 436.2095429022449Q1252.05938457523 433.0305583426298 1254.1163745843928 428.1418678013728L1254.1163745843928 428.1418678013728L1254.1163745843928 388.79191606764914Q1252.6203818504564 387.8569206089388 1249.1475415752466 386.54792696674434Q1245.6747013000368 385.2122191685867 1239.3701604927328 385.2122191685867L1239.3701604927328 385.2122191685867Q1227.7495026487613 385.2122191685867 1221.925816648794 392.8257536180852Q1216.102130648827 400.4392880675837 1216.102130648827 413.3155112418232L1216.102130648827 413.3155112418232Q1216.102130648827 426.6458750674363 1220.9641070341204 433.0305583426298Q1225.8527975753777 439.41524161782326 1233.9471868322125 439.41524161782326ZM1356.2980211434515 463.45798198466053L1356.2980211434515 463.45798198466053Q1340.4298125013388 463.45798198466053 1328.7022980335146 458.32886403973527Q1316.9480694097279 453.2264602507731 1310.4832436666447 442.4072270856963Q1303.9917037675987 431.6147080765827 1303.9917037675987 414.51764826016506L1303.9917037675987 414.51764826016506Q1303.9917037675987 388.8720585355386 1317.1350685014695 375.7286938016676Q1330.3051473913038 362.5853290677965 1352.0771845012732 362.5853290677965L1352.0771845012732 362.5853290677965Q1366.2624013177074 362.5853290677965 1376.0664965561841 367.6610187007955Q1385.8973059506243 372.73670833379447 1390.9997097395867 381.65923642548745Q1396.1288276845116 390.5817645171804 1396.1288276845116 402.0421374253728L1396.1288276845116 402.0421374253728Q1396.1288276845116 413.2086546179706 1390.411998308397 417.6164903518907Q1384.6684547763193 422.0243260858109 1373.6889366754635 422.0243260858109L1373.6889366754635 422.0243260858109L1333.4039894830298 422.0243260858109Q1334.1519858499978 431.7215647004353 1340.4832408132652 436.7705401774711Q1346.814495776532 441.8462298104701 1357.7138714094986 441.8462298104701L1357.7138714094986 441.8462298104701Q1366.3692579415597 441.8462298104701 1371.5785183543744 439.28167083800747Q1376.7877787671891 436.69039770958165 1378.8447687763523 435.1944049756451L1378.8447687763523 435.1944049756451Q1380.6346172258832 433.8586971774875 1382.878606326788 433.96555380134015L1382.878606326788 433.96555380134015Q1384.6684547763193 433.96555380134015 1388.0077242717134 434.6601218563821Q1391.3469937671075 435.3814040673872 1394.6328349505752 437.25139498480786L1394.6328349505752 437.25139498480786Q1396.9836806753324 438.4802461591129 1396.9836806753324 440.6440927921283L1396.9836806753324 440.6440927921283Q1396.9836806753324 441.8462298104701 1396.5028258679959 444.11693306733804L1396.5028258679959 444.11693306733804Q1396.2356843083644 445.4259267095326 1395.5678304092858 447.9103432141057Q1394.8999765102067 450.3947597186789 1393.8848385836068 452.55860635169427L1393.8848385836068 452.55860635169427Q1393.323841308381 453.60045843425723 1392.094990134076 454.53545389296755L1392.094990134076 454.53545389296755Q1390.2249992166553 455.84444753516203 1386.03087673044 458.00829416817743Q1381.8634684001886 460.1721408011927 1374.623932134174 461.8017043149451Q1367.3843958681596 463.45798198466053 1356.2980211434515 463.45798198466053ZM1333.2169903912873 402.7901337923411L1333.2169903912873 402.7901337923411L1363.8314131250604 402.7901337923411Q1368.6132470424645 402.7901337923411 1368.6132470424645 398.38229805842093L1368.6132470424645 398.38229805842093Q1368.6132470424645 391.7037590676328 1364.4458387122127 387.1356383979337Q1360.2517162259978 382.59423188419777 1351.8901854095311 382.59423188419777L1351.8901854095311 382.59423188419777Q1342.780658226096 382.59423188419777 1338.5063932719918 388.41791788416504Q1334.2321283178876 394.2416038841323 1333.2169903912873 402.7901337923411Z " fill="#7d141d" transform="matrix(0.6263494956785555,0,0,0.6263494956785555,0,56.68953403133938)"/></g></svg>